<svg version="1.1" height="300" width="280" xmlns="http://www.w3.org/2000/svg" style="">
	<g transform="translate(-20,0)">
		<g class="pin" transform="translate(95,110) scale(0.9)">
			<ellipse class="top" 	 cx="0" cy="0"  rx="10" ry="5" style="fill:#B1B2B9" />
			<ellipse class="bottom" cx="0" cy="50" rx="20" ry="10" style="fill:#B1B2B9" />
			<polygon points="-10,0 10,0 20,50 -20,50" style="fill:#B1B2B9"/>
		</g>

		<g class="bead filled green" transform="translate(95,110) scale(0.9)">
			<ellipse class="top" 	 cx="0" cy="0"  rx="22" ry="10" style="fill:#eeeeee" />
			<ellipse class="bottom" cx="0" cy="45" rx="22" ry="10" style="fill:#eeeeee" />
			<polygon points="-22,0 22,0 22,45 -22,45" style="fill:#eeeeee"/>
			<ellipse class="hole" cx="0" cy="0" rx="14" ry="6" style="fill:#ffffff" />
			<ellipse class="nippel" cx="0" cy="2"  rx="10" ry="5" style="fill:#B1B2B9" />
		</g>

		<g class="pin" transform="translate(75,220)">
			<ellipse class="top" 	 cx="0" cy="0"  rx="10" ry="5" style="fill:#B1B2B9" />
			<ellipse class="bottom" cx="0" cy="50" rx="20" ry="10" style="fill:#B1B2B9" />
			<polygon points="-10,0 10,0 20,50 -20,50" style="fill:#B1B2B9"/>
		</g>

		<g class="bead filled blue" transform="translate(75,220)">
			<ellipse class="top" 	 cx="0" cy="0"  rx="22" ry="10" style="fill:#eeeeee" />
			<ellipse class="bottom" cx="0" cy="45" rx="22" ry="10" style="fill:#eeeeee" />
			<polygon points="-22,0 22,0 22,45 -22,45" style="fill:#eeeeee"/>
			<ellipse class="hole" cx="0" cy="0" rx="14" ry="6" style="fill:#ffffff" />
			<ellipse class="nippel" cx="0" cy="2"  rx="10" ry="5" style="fill:#B1B2B9" />
		</g>

		<g class="pin empty" transform="translate(220,110) scale(0.9)">
			<ellipse class="top" 	 cx="0" cy="0"  rx="10" ry="5" style="fill:#B1B2B9" />
			<ellipse class="bottom" cx="0" cy="50" rx="20" ry="10" style="fill:#B1B2B9" />
			<polygon points="-10,0 10,0 20,50 -20,50" style="fill:#B1B2B9"/>
		</g>

		<g class="pin" transform="translate(200,220)">
			<ellipse class="top" 	 cx="0" cy="0"  rx="10" ry="5" style="fill:#B1B2B9" />
			<ellipse class="bottom" cx="0" cy="50" rx="20" ry="10" style="fill:#B1B2B9" />
			<polygon points="-10,0 10,0 20,50 -20,50" style="fill:#B1B2B9"/>
		</g>

		<g class="bead filled red" transform="translate(200,220)">
			<ellipse class="top" 	 cx="0" cy="0"  rx="22" ry="10" style="fill:#eeeeee" />
			<ellipse class="bottom" cx="0" cy="45" rx="22" ry="10" style="fill:#eeeeee" />
			<polygon points="-22,0 22,0 22,45 -22,45" style="fill:#eeeeee"/>
			<ellipse class="hole" cx="0" cy="0" rx="14" ry="6" style="fill:#ffffff" />
			<ellipse class="nippel" cx="0" cy="2"  rx="10" ry="5" style="fill:#B1B2B9" />
		</g>

		<g class="bead yellow" transform="translate(200,65) scale(1.1) rotate(160)">
			<ellipse class="top" 	 cx="0" cy="0"  rx="22" ry="10" style="fill:#eeeeee" />
			<ellipse class="bottom" cx="0" cy="45" rx="22" ry="10" style="fill:#eeeeee" />
			<polygon points="-22,0 22,0 22,45 -22,45" style="fill:#eeeeee"/>
			<ellipse class="hole" cx="0" cy="0" rx="14" ry="6" style="fill:#ffffff" />
		</g>
	</g>
</svg>
